<?xml version="1.0" encoding="UTF-8" standalone="no"?>
<svg
   id="svg4"
   viewBox="0 0 32 32"
   height="32"
   width="32"
   version="1.1"
   sodipodi:docname="ic_charge_socket_type1_combo.svg"
   inkscape:version="1.4.3 (0d15f75042, 2025-12-25)"
   xml:space="preserve"
   xmlns:inkscape="http://www.inkscape.org/namespaces/inkscape"
   xmlns:sodipodi="http://sodipodi.sourceforge.net/DTD/sodipodi-0.dtd"
   xmlns="http://www.w3.org/2000/svg"
   xmlns:svg="http://www.w3.org/2000/svg"
   xmlns:rdf="http://www.w3.org/1999/02/22-rdf-syntax-ns#"
   xmlns:cc="http://creativecommons.org/ns#"
   xmlns:dc="http://purl.org/dc/elements/1.1/"><sodipodi:namedview
     id="namedview1"
     pagecolor="#ffffff"
     bordercolor="#000000"
     borderopacity="0.25"
     inkscape:showpageshadow="2"
     inkscape:pageopacity="0.0"
     inkscape:pagecheckerboard="0"
     inkscape:deskcolor="#d1d1d1"
     inkscape:zoom="13.435554"
     inkscape:cx="36.098251"
     inkscape:cy="4.2796895"
     inkscape:window-width="1920"
     inkscape:window-height="1131"
     inkscape:window-x="0"
     inkscape:window-y="0"
     inkscape:window-maximized="1"
     inkscape:current-layer="svg4"
     showguides="true" /><metadata
     id="metadata10"><rdf:RDF><cc:Work
         rdf:about=""><dc:format>image/svg+xml</dc:format><dc:type
           rdf:resource="http://purl.org/dc/dcmitype/StillImage" /></cc:Work></rdf:RDF></metadata><defs
     id="defs8" /><path
     id="path10"
     style="opacity:1;fill:#000000;stroke:none;stroke-width:0.083781;stroke-dasharray:none"
     d="M 19.046875 0.044921875 C 15.238472 0.045080875 12.152502 3.1310511 12.152344 6.9394531 C 12.152216 9.4409812 13.501482 11.718059 15.632812 12.931641 L 15.060547 12.931641 C 12.601837 12.931641 10.623047 14.912394 10.623047 17.371094 C 10.623047 19.829793 12.601837 21.808594 15.060547 21.808594 L 18.085938 21.808594 L 18.085938 26.173828 C 18.085938 27.662631 14.391436 27.737185 14.433594 26.197266 L 14.433594 26.185547 L 14.433594 24.751953 C 14.433594 23.96423 14.066824 23.257151 13.509766 22.619141 C 12.952706 21.981139 12.127373 21.423828 11.103516 21.423828 L 2.9394531 21.423828 L 2.9394531 23.138672 L 11.103516 23.138672 C 11.483223 23.138672 11.8932 23.370989 12.220703 23.746094 C 12.548214 24.121199 12.716797 24.650274 12.716797 24.751953 L 12.716797 26.150391 C 12.611475 29.997441 19.800781 30.002818 19.800781 26.173828 L 19.800781 21.808594 L 23.148438 21.808594 C 25.607147 21.808594 27.585938 19.829793 27.585938 17.371094 C 27.585938 14.912393 25.607147 12.931641 23.148438 12.931641 L 22.460938 12.931641 C 24.5922 11.718042 25.943486 9.4409344 25.943359 6.9394531 C 25.9432 3.1309011 22.855423 0.044877875 19.046875 0.044921875 z M 19.046875 0.9765625 C 22.352778 0.9767175 25.033044 3.6569866 25.033203 6.9628906 C 25.033294 9.7158636 23.156933 12.114877 20.484375 12.775391 L 20.484375 13.203125 C 20.484375 13.665231 20.110545 14.037109 19.648438 14.037109 L 18.445312 14.037109 C 17.983207 14.037109 17.611328 13.665231 17.611328 13.203125 L 17.611328 12.775391 C 14.938769 12.114877 13.060461 9.7158636 13.060547 6.9628906 C 13.060705 3.6568426 15.740828 0.9765145 19.046875 0.9765625 z M 19.0625 1.8183594 C 16.247674 1.8183834 13.964866 4.1011866 13.964844 6.9160156 C 13.964866 9.7308476 16.24767 12.011695 19.0625 12.011719 C 21.877329 12.011695 24.160135 9.7308476 24.160156 6.9160156 C 24.160135 4.1011866 21.877329 1.8183834 19.0625 1.8183594 z M 17.027344 3.5546875 C 17.840735 3.5547105 18.499978 4.2139538 18.5 5.0273438 C 18.499978 5.8407367 17.840735 6.499976 17.027344 6.5 C 16.213952 6.499976 15.55471 5.8407368 15.554688 5.0273438 C 15.554709 4.2139537 16.213952 3.5547105 17.027344 3.5546875 z M 21.066406 3.5546875 C 21.879797 3.5547105 22.53904 4.2139538 22.539062 5.0273438 C 22.53904 5.8407367 21.879797 6.499976 21.066406 6.5 C 20.253015 6.499976 19.593771 5.8407368 19.59375 5.0273438 C 19.593771 4.2139537 20.253015 3.5547105 21.066406 3.5546875 z M 17.027344 4.5800781 C 16.780663 4.5799431 16.581894 4.7806608 16.582031 5.0273438 C 16.582096 5.2738838 16.780806 5.4727902 17.027344 5.4726562 C 17.273737 5.4725883 17.474545 5.2737408 17.474609 5.0273438 C 17.474746 4.7808047 17.273881 4.5801461 17.027344 4.5800781 z M 21.066406 4.5800781 C 20.819724 4.5799431 20.620957 4.7806608 20.621094 5.0273438 C 20.621158 5.2738838 20.819869 5.4727902 21.066406 5.4726562 C 21.312799 5.4725883 21.513608 5.2737408 21.513672 5.0273438 C 21.513809 4.7808047 21.312943 4.5801461 21.066406 4.5800781 z M 16.191406 6.9570312 C 16.791647 6.9570482 17.279283 7.4427318 17.279297 8.0429688 C 17.279283 8.6432067 16.791647 9.1308434 16.191406 9.1308594 C 15.591167 9.1308474 15.105484 8.6432097 15.105469 8.0429688 C 15.105484 7.4427287 15.591167 6.9570442 16.191406 6.9570312 z M 21.902344 6.9570312 C 22.502585 6.9570443 22.990219 7.4427287 22.990234 8.0429688 C 22.990219 8.6432098 22.502585 9.1308474 21.902344 9.1308594 C 21.302104 9.1308434 20.816421 8.6432067 20.816406 8.0429688 C 20.816421 7.4427318 21.302104 6.9570482 21.902344 6.9570312 z M 16.191406 7.7402344 C 16.024124 7.7400904 15.888738 7.8756897 15.888672 8.0429688 C 15.888738 8.2102478 16.024124 8.3458471 16.191406 8.3457031 C 16.358537 8.3456371 16.494076 8.2100997 16.494141 8.0429688 C 16.494076 7.8758397 16.358537 7.7403014 16.191406 7.7402344 z M 21.902344 7.7402344 C 21.73507 7.7400954 21.599675 7.8756937 21.599609 8.0429688 C 21.599675 8.2102447 21.73507 8.3458441 21.902344 8.3457031 C 22.069331 8.3454341 22.205014 8.2099557 22.205078 8.0429688 C 22.205014 7.8759837 22.069331 7.7405044 21.902344 7.7402344 z M 19.046875 8.2558594 C 19.860273 8.2558794 20.519509 8.9170727 20.519531 9.7304688 C 20.519509 10.543858 19.860266 11.203105 19.046875 11.203125 C 18.233483 11.203102 17.574241 10.543855 17.574219 9.7304688 C 17.574241 8.9170758 18.233483 8.2558834 19.046875 8.2558594 z M 19.046875 9.2832031 C 18.800186 9.2830671 18.601425 9.4837827 18.601562 9.7304688 C 18.601627 9.9770078 18.800337 10.175917 19.046875 10.175781 C 19.293268 10.175714 19.494077 9.9768647 19.494141 9.7304688 C 19.494278 9.4839268 19.293419 9.2832711 19.046875 9.2832031 z M 15.783203 14.861328 C 17.135879 14.861231 18.232524 15.957872 18.232422 17.310547 C 18.232524 18.663223 17.135879 19.759863 15.783203 19.759766 C 14.430523 19.759869 13.333882 18.663227 13.333984 17.310547 C 13.333882 15.957867 14.430523 14.861225 15.783203 14.861328 z M 22.427734 14.861328 C 23.780413 14.861226 24.875102 15.957868 24.875 17.310547 C 24.875102 18.663227 23.780413 19.759869 22.427734 19.759766 C 21.075054 19.75987 19.978414 18.663228 19.978516 17.310547 C 19.978414 15.957867 21.075054 14.861225 22.427734 14.861328 z M 15.783203 16.423828 C 15.293796 16.423956 14.896612 16.82114 14.896484 17.310547 C 14.896328 17.800156 15.293595 18.197138 15.783203 18.197266 C 16.273012 18.197422 16.670079 17.800356 16.669922 17.310547 C 16.669794 16.820939 16.272811 16.423672 15.783203 16.423828 z M 22.427734 16.423828 C 21.938326 16.423956 21.541144 16.82114 21.541016 17.310547 C 21.54086 17.800156 21.938125 18.197139 22.427734 18.197266 C 22.917543 18.197422 23.31461 17.800356 23.314453 17.310547 C 23.314325 16.82094 22.917341 16.423673 22.427734 16.423828 z " /></svg>
